<svg xmlns="http://www.w3.org/2000/svg" xmlns:xlink="http://www.w3.org/1999/xlink" x="0" y="0" version="1.1" viewBox="0 0 1000 1000" xml:space="preserve" style="enable-background:new 0 0 1000 1000"><g id="OBJECTS"><rect style="fill:#e83d3d" width="1000" height="1000"/><g><path style="fill:#fff" d="M373.799,316.346c-19.994,23.918-7.319,61.359-11.19,87.239 c-3.818,25.881-19.41,36.275-19.41,36.275s15.592,10.394,19.41,36.275c3.872,25.88-8.803,63.322,11.19,87.239 c6.465,7.792,14.392,11.676,21.708,13.488c6.702,1.659,11.332,7.76,11.332,14.665l0,0c0,8.941-7.711,16.129-16.595,15.118 c-50.356-5.729-65.606-39.634-63.008-82.833c2.188-35.758-3.44-54.393-13.595-61.475c-6.868-4.789-11.542-12.095-11.542-20.468 v-4.018c0-8.372,4.674-15.679,11.542-20.468c10.155-7.083,15.783-25.717,13.595-61.475c-2.597-43.199,12.653-77.104,63.008-82.833 c8.884-1.01,16.595,6.177,16.595,15.118l0,0c0,6.905-4.63,13.006-11.332,14.665C388.19,304.67,380.263,308.554,373.799,316.346z"/><path style="fill:#fff" d="M626.201,316.346c19.994,23.918,7.318,61.359,11.19,87.239c3.818,25.881,19.41,36.275,19.41,36.275 s-15.592,10.394-19.41,36.275c-3.872,25.88,8.803,63.322-11.19,87.239c-6.464,7.792-14.391,11.676-21.708,13.488 c-6.702,1.659-11.331,7.76-11.331,14.665l0,0c0,8.941,7.711,16.129,16.595,15.118c50.356-5.729,65.606-39.634,63.008-82.833 c-2.187-35.758,3.441-54.393,13.596-61.475c6.867-4.789,11.542-12.095,11.542-20.468v-4.018c0-8.372-4.675-15.679-11.542-20.468 c-10.155-7.083-15.783-25.717-13.596-61.475c2.598-43.199-12.652-77.104-63.008-82.833c-8.884-1.01-16.595,6.177-16.595,15.118 l0,0c0,6.905,4.63,13.006,11.331,14.665C611.81,304.67,619.737,308.554,626.201,316.346z"/></g><g><path style="fill:none;stroke:#2d2c2c;stroke-width:5;stroke-linecap:round;stroke-miterlimit:10" d="M472.894,397.726 c0,23.085-18.715,41.799-41.8,41.799c-23.085,0-41.8-18.714-41.8-41.799c0-23.086,18.714-41.8,41.8-41.8 C454.179,355.926,472.894,374.64,472.894,397.726z"/><path style="fill:none;stroke:#2d2c2c;stroke-width:5;stroke-linecap:round;stroke-miterlimit:10" d="M610.706,397.726 c0,23.085-18.715,41.799-41.8,41.799c-23.086,0-41.8-18.714-41.8-41.799c0-23.086,18.714-41.8,41.8-41.8 C591.991,355.926,610.706,374.64,610.706,397.726z"/></g><path style="fill:none;stroke:#2d2c2c;stroke-width:5;stroke-linecap:round;stroke-miterlimit:10" d="M472.544,391.738 c0,0,5.091-21.901,27.456-21.901c22.366,0,27.456,21.901,27.456,21.901"/><path style="fill:none;stroke:#2d2c2c;stroke-width:5;stroke-linecap:round;stroke-miterlimit:10" d="M550.454,496.002 c0,0-9.355,32.742-50.455,32.742c-41.099,0-50.454-32.742-50.454-32.742"/><g><g><path style="fill:#2d2c2c" d="M319.723,688.628c0,4.232,0,8.843,4.005,12.243c2.041,1.738,5.517,2.872,8.313,2.872 s6.273-1.134,8.313-2.872c4.006-3.4,4.006-8.011,4.006-12.243v-30.911h5.593v32.423c0,4.232-0.454,8.313-3.174,12.093 c-3.023,4.156-8.313,6.802-14.738,6.802c-6.424,0-11.714-2.646-14.737-6.802c-2.721-3.779-3.174-7.86-3.174-12.093v-32.423h5.593 V688.628z"/><path style="fill:#2d2c2c" d="M361.212,708.127l8.389-53.206l19.348,42.55l19.726-42.625l7.86,53.281h-5.744l-4.762-35.067 l-17.156,37.184l-16.929-37.184l-4.988,35.067H361.212z"/><path style="fill:#2d2c2c" d="M433.761,688.628c0,4.232,0,8.843,4.005,12.243c2.041,1.738,5.517,2.872,8.313,2.872 s6.273-1.134,8.313-2.872c4.006-3.4,4.006-8.011,4.006-12.243v-30.911h5.592v32.423c0,4.232-0.453,8.313-3.174,12.093 c-3.023,4.156-8.313,6.802-14.738,6.802c-6.424,0-11.714-2.646-14.737-6.802c-2.721-3.779-3.174-7.86-3.174-12.093v-32.423h5.593 V688.628z"/><path style="fill:#2d2c2c" d="M489.382,663.008v45.119h-5.593v-45.119h-12.243v-5.291h30.08v5.291H489.382z"/><path style="fill:#fff" d="M533.592,693.919h-21.464l-6.046,14.208h-6.197l23.202-52.828l22.598,52.828h-6.197 L533.592,693.919z M531.401,688.628l-8.464-20.179l-8.616,20.179H531.401z"/><path style="fill:#fff" d="M558.379,679.332l21.464-21.615h7.558l-23.58,23.505l24.336,26.905h-7.709L559.815,685 l-1.436,1.437v21.69h-5.593v-50.41h5.593V679.332z"/><path style="fill:#fff" d="M608.105,663.008v45.119h-5.593v-45.119h-12.243v-5.291h30.08v5.291H608.105z"/><path style="fill:#fff" d="M652.315,693.919h-21.464l-6.046,14.208h-6.197l23.202-52.828l22.598,52.828h-6.197 L652.315,693.919z M650.123,688.628l-8.464-20.179l-8.616,20.179H650.123z"/><path style="fill:#fff" d="M693.2,667.693c-0.68-1.36-1.814-2.872-2.947-3.779c-0.983-0.755-2.796-1.738-5.668-1.738 c-4.988,0-8.465,3.1-8.465,7.785c0,1.965,0.529,3.099,1.89,4.383c1.512,1.512,3.401,2.344,5.291,3.175l4.837,2.116 c2.947,1.284,5.668,2.645,7.784,4.761c2.57,2.57,3.628,5.518,3.628,9.146c0,9.296-6.877,15.493-15.947,15.493 c-3.326,0-7.482-0.681-10.959-4.081c-2.494-2.419-4.005-5.896-4.686-8.918l5.441-1.512c0.378,2.645,1.587,4.912,3.023,6.424 c2.191,2.191,4.686,2.796,7.255,2.796c6.877,0,10.127-4.912,10.127-9.976c0-2.268-0.68-4.232-2.494-5.896 c-1.436-1.36-3.401-2.267-6.046-3.477l-4.535-2.116c-1.965-0.906-4.459-1.965-6.726-4.156c-2.192-2.116-3.477-4.459-3.477-8.238 c0-7.784,5.97-12.999,14.133-12.999c3.099,0,5.593,0.604,8.086,2.268c2.041,1.36,3.779,3.4,4.913,5.593L693.2,667.693z M688.665,714.324l-7.86,9.674l-3.779-1.965l6.348-9.977L688.665,714.324z"/></g></g></g></svg>